<svg width="476.620068359375px" height="129.22501220703123px" xmlns="http://www.w3.org/2000/svg" viewBox="11.689965820312494 10.387493896484386 476.620068359375 129.22501220703123" style="background: rgba(0, 0, 0, 0);" preserveAspectRatio="xMidYMid"><defs><filter id="editing-raise" x="-100%" y="-100%" width="300%" height="300%"><feFlood flood-color="#ccc" result="flood-surface"></feFlood><feFlood flood-color="#777" result="flood-extrude"></feFlood><feMorphology operator="erode" in="SourceAlpha" radius="1" result="erode"></feMorphology><feConvolveMatrix in="erode" result="shadow" order="11,8" divisor="1" kernelMatrix="0 0 0 1 1 1 1 1 0 0 0 0 0 1 0 0 0 0 0 1 0 0 0 0 1 0 0 0 0 0 1 0 0 0 0 1 0 0 0 0 0 1 0 0 0 0 1 0 0 0 0 0 1 0 0 0 0 0 1 0 0 0 1 0 0 0 0 0 0 1 1 0 1 1 0 0 0 0 0 0 0 0 1 0 0 0 0 0"></feConvolveMatrix><feOffset dx="0" dy="4" in="shadow" result="offset"></feOffset><feGaussianBlur in="offset" stdDeviation="0.2" result="blur"></feGaussianBlur><feComposite operator="in" in="flood-extrude" in2="blur" result="extrude"></feComposite><feMorphology operator="erode" in="SourceAlpha" radius="1" result="erode2"></feMorphology><feConvolveMatrix in="erode2" result="out" order="4,4" divisor="1" kernelMatrix="0 1 1 0 1 0 0 1 1 0 0 1 0 1 1 0 "></feConvolveMatrix><feComposite operator="in" in="flood-surface" in2="out" result="text"></feComposite><feMerge><feMergeNode in="extrude"></feMergeNode><feMergeNode in="text"></feMergeNode></feMerge></filter></defs><g filter="url(#editing-raise)"><g transform="translate(81.6499993801117, 99.82999992370605)"><path d="M28.54-44.80L34.75-45.44L34.11-42.30L34.05-33.92L31.74-33.41L30.08-41.92L14.21-42.43L13.57-25.09L24.26-25.41L25.54-31.55L28.10-30.59L27.46-23.30L28.10-15.55L25.54-16.06L24.32-22.40L13.57-21.76L14.21-3.14L20.16-1.92L19.84 0.32L10.69 0L2.24 0.64L2.37-1.60L7.49-3.20L8.13-22.85L7.49-41.60L2.30-43.14L2.62-45.38L10.69-44.80L28.54-44.80ZM37.70-5.82L35.58-12.16L35.58-20.54L39.36-28.16L46.59-32.96L55.36-33.28L63.36-28.48L67.52-20.80L66.75-9.09L62.02-1.54L52.10 1.28L43.78-0.32L37.70-5.82ZM46.66-29.70L42.62-22.72L42.30-15.55L43.07-8.13L45.82-3.33L52.61-1.66L58.88-4.42L60.74-14.40L60.10-22.72L57.73-28.03L53.06-30.40L46.66-29.70ZM74.56-5.82L72.45-12.16L72.45-20.54L76.22-28.16L83.46-32.96L92.22-33.28L100.22-28.48L104.38-20.80L103.62-9.09L98.88-1.54L88.96 1.28L80.64-0.32L74.56-5.82ZM83.52-29.70L79.49-22.72L79.17-15.55L79.94-8.13L82.69-3.33L89.47-1.66L95.74-4.42L97.60-14.40L96.96-22.72L94.59-28.03L89.92-30.40L83.52-29.70ZM133.82 0.90L132.61-2.88L132.29-2.88L125.18 1.28L118.08 0.51L113.41-2.82L109.70-10.43L109.63-21.31L112.06-26.37L119.42-32.32L126.53-33.28L132.74-31.68L132.35-43.90L127.04-44.42L127.36-46.66L136.19-48.38L138.75-47.68L138.30-22.91L138.75-2.62L143.17-1.98L142.72 0.13L133.82 0.90ZM117.70-5.89L123.20-1.98L132.61-5.57L132.74-28.16L125.63-30.40L121.60-29.25L116.67-24L115.78-16.64L117.70-5.89ZM185.60-3.52L190.46-8.64L189.57-18.11L185.22-21.18L180.74-21.89L173.06-21.89L173.70-2.88L181.06-2.56L185.60-3.52ZM173.06-24.77L180.74-25.09L187.39-28.61L188.10-35.58L184.83-40.90L180.99-41.92L173.50-41.73L173.06-24.77ZM170.18-44.80L181.06-44.80L188.48-43.84L194.50-37.76L194.50-31.74L191.04-26.56L185.02-24.06L185.02-23.94L191.55-22.53L196.29-17.66L197.50-13.06L195.07-4.54L188.67-0.83L180.80 0.32L170.50 0L161.73 0.64L161.86-1.60L166.98-3.20L167.62-22.85L166.98-41.60L161.73-43.14L162.05-45.38L170.18-44.80ZM212.29-31.94L211.90-22.08L211.90-8.13L213.63-3.90L219.01-3.20L225.98-7.36L225.98-14.14L225.92-22.14L225.60-28.80L221.06-28.61L220.74-30.85L229.57-32.58L232.77-31.87L232.32-23.17L232.26-18.05L232.38-14.14L232.38-2.62L236.86-1.34L236.54 0.90L227.78 0.90L226.30-4.48L219.07 0.83L212.54 1.28L206.66-2.75L205.70-7.87L205.76-21.57L205.12-28.86L200.58-28.67L200.26-30.91L209.09-32.64L212.29-31.94ZM258.24-1.54L254.66 0.64L250.30 1.28L245.76-0.26L243.71-5.38L244.03-17.28L243.71-28.03L239.30-28.67L238.91-30.91L243.97-32.26L246.27-38.72L249.54-38.72L249.34-31.55L257.09-31.30L256.70-28.48L249.98-28.03L249.73-25.09L249.98-5.70L251.26-1.86L257.28-3.46L258.24-1.54ZM271.17-47.68L270.72-39.23L270.34-16.83L270.53-10.62L271.04-3.20L275.71-1.92L275.39 0.32L267.58 0L259.78 0.32L259.90-1.92L264.13-3.20L264.45-9.92L264.70-23.94L264.32-38.21L264-44.61L259.46-44.42L259.14-46.66L267.97-48.38L271.17-47.68ZM296.45-16.51L285.38-17.22L285.31-16.64L287.04-7.62L292.10-2.62L297.98-1.98L304-5.18L305.15-3.52L300.10 0.51L294.08 1.28L287.81-0.19L282.37-4.74L279.10-14.34L280.19-22.91L283.52-28.93L290.24-32.64L295.87-33.34L300.35-31.94L303.81-28.80L305.79-23.10L305.86-17.79L304.96-17.09L296.45-16.51ZM293.44-30.46L288.58-27.58L286.08-22.72L285.70-19.84L295.42-19.71L299.84-20.67L299.46-26.62L297.54-29.89L293.44-30.46ZM321.34-31.94L321.09-26.75L321.34-26.75L325.31-31.30L329.66-33.22L334.46-32L333.38-22.46L331.14-22.91L329.54-29.50L325.38-28.16L320.83-22.85L320.51-16.83L320.70-10.62L320.96-3.20L327.36-1.92L327.04 0.32L317.76 0L309.95 0.32L310.08-1.92L314.30-3.20L314.62-9.92L314.50-22.21L314.18-28.86L309.63-28.67L309.31-30.91L318.14-32.64L321.34-31.94Z"></path></g></g><style>text {
  font-size: 64px;
  font-family: Arial Black;
  dominant-baseline: central;
  text-anchor: middle;
}</style></svg>